<svg width="15" height="27" viewBox="0 0 15 27" fill="none" xmlns="http://www.w3.org/2000/svg">
<path d="M10.9737 0C9.22548 0 7.54889 0.696032 6.31273 1.93498C5.07657 3.17392 4.38211 4.85429 4.38211 6.60643V10.2846H0.854728C0.678003 10.2846 0.534058 10.4274 0.534058 10.606V15.4626C0.534058 15.6397 0.676578 15.784 0.854728 15.784H4.38211V25.7472C4.38211 25.9243 4.52463 26.0686 4.70278 26.0686H9.54847C9.72519 26.0686 9.86914 25.9258 9.86914 25.7472V15.784H13.4279C13.5747 15.784 13.7029 15.684 13.7386 15.5412L14.95 10.6846C14.9619 10.6372 14.9629 10.5877 14.9529 10.5398C14.9428 10.492 14.922 10.4471 14.8921 10.4085C14.8621 10.37 14.8238 10.3388 14.78 10.3173C14.7362 10.2958 14.6881 10.2846 14.6393 10.2846H9.86914V6.60643C9.86914 6.46105 9.89771 6.3171 9.95322 6.18279C10.0087 6.04848 10.0901 5.92644 10.1926 5.82364C10.2952 5.72085 10.417 5.6393 10.551 5.58367C10.685 5.52804 10.8286 5.4994 10.9737 5.4994H14.6792C14.8559 5.4994 14.9999 5.35656 14.9999 5.17801V0.321394C14.9999 0.14427 14.8574 0 14.6792 0H10.9737Z" fill="black"/>
</svg>
