<svg width="25" height="27" viewBox="0 0 25 27" fill="none" xmlns="http://www.w3.org/2000/svg">
<path d="M7.07921 0H17.3319C21.2376 0 24.4111 3.38892 24.4111 7.55989V18.5087C24.4111 20.5137 23.6652 22.4366 22.3376 23.8544C21.01 25.2721 19.2094 26.0686 17.3319 26.0686H7.07921C3.17344 26.0686 0 22.6797 0 18.5087V7.55989C0 5.55488 0.745843 3.632 2.07345 2.21424C3.40106 0.796487 5.20168 0 7.07921 0ZM6.8351 2.60686C5.66974 2.60686 4.55211 3.10123 3.72808 3.98122C2.90404 4.8612 2.44111 6.05472 2.44111 7.29921V18.7694C2.44111 21.3632 4.4062 23.4617 6.8351 23.4617H17.576C18.7413 23.4617 19.8589 22.9674 20.683 22.0874C21.507 21.2074 21.9699 20.0139 21.9699 18.7694V7.29921C21.9699 4.70538 20.0049 2.60686 17.576 2.60686H6.8351ZM18.6134 4.562C19.0181 4.562 19.4061 4.73366 19.6923 5.03921C19.9784 5.34476 20.1391 5.75918 20.1391 6.19129C20.1391 6.62341 19.9784 7.03782 19.6923 7.34337C19.4061 7.64892 19.0181 7.82058 18.6134 7.82058C18.2088 7.82058 17.8207 7.64892 17.5346 7.34337C17.2485 7.03782 17.0877 6.62341 17.0877 6.19129C17.0877 5.75918 17.2485 5.34476 17.5346 5.03921C17.8207 4.73366 18.2088 4.562 18.6134 4.562ZM12.2055 6.51715C13.8241 6.51715 15.3763 7.20378 16.5208 8.42598C17.6653 9.64818 18.3083 11.3058 18.3083 13.0343C18.3083 14.7628 17.6653 16.4204 16.5208 17.6426C15.3763 18.8648 13.8241 19.5514 12.2055 19.5514C10.587 19.5514 9.03471 18.8648 7.89022 17.6426C6.74573 16.4204 6.10276 14.7628 6.10276 13.0343C6.10276 11.3058 6.74573 9.64818 7.89022 8.42598C9.03471 7.20378 10.587 6.51715 12.2055 6.51715ZM12.2055 9.12401C11.2344 9.12401 10.303 9.53598 9.61634 10.2693C8.92965 11.0026 8.54387 11.9972 8.54387 13.0343C8.54387 14.0714 8.92965 15.066 9.61634 15.7993C10.303 16.5326 11.2344 16.9446 12.2055 16.9446C13.1767 16.9446 14.108 16.5326 14.7947 15.7993C15.4814 15.066 15.8672 14.0714 15.8672 13.0343C15.8672 11.9972 15.4814 11.0026 14.7947 10.2693C14.108 9.53598 13.1767 9.12401 12.2055 9.12401Z" fill="black"/>
</svg>
