<svg width="120" height="31" viewBox="0 0 120 31" fill="none" xmlns="http://www.w3.org/2000/svg">
<path d="M25.849 30.6977C22.429 30.6977 19.6426 27.9153 19.6426 24.4913V6.20252C19.6426 2.78248 22.4251 0 25.849 0C29.273 0 32.0515 2.78248 32.0515 6.20252V24.4913C32.0555 27.9153 29.273 30.6977 25.849 30.6977ZM25.849 1.97567C23.5152 1.97567 21.6183 3.87263 21.6183 6.20645V24.4952C21.6183 26.829 23.5152 28.726 25.849 28.726C28.1829 28.726 30.0798 26.829 30.0798 24.4952V6.20645C30.0798 3.87263 28.1829 1.97567 25.849 1.97567Z" fill="black"/>
<path d="M90.9242 30.6977C87.5042 30.6977 84.7178 27.9153 84.7178 24.4913V6.20252C84.7178 2.78248 87.5003 0 90.9242 0C94.3482 0 97.1307 2.78248 97.1307 6.20252V24.4913C97.1307 27.9153 94.3482 30.6977 90.9242 30.6977ZM90.9242 1.97567C88.5904 1.97567 86.6935 3.87263 86.6935 6.20645V24.4952C86.6935 26.829 88.5904 28.726 90.9242 28.726C93.258 28.726 95.155 26.829 95.155 24.4952V6.20645C95.155 3.87263 93.258 1.97567 90.9242 1.97567Z" fill="black"/>
<path d="M109.567 0.0512695H107.592V30.6506H109.567V0.0512695Z" fill="black"/>
<path d="M120 0.0512695H118.024V30.6506H120V0.0512695Z" fill="black"/>
<path d="M109.164 3.96133L107.987 5.54346L118.421 13.3038L119.598 11.7217L109.164 3.96133Z" fill="black"/>
<path d="M48.7189 30.6977C45.2949 30.6977 42.5125 27.9153 42.5125 24.4952V6.20645C42.5125 2.78247 45.2949 0 48.7189 0C50.3679 0 51.9264 0.645442 53.0992 1.82219C54.272 2.995 54.9214 4.55349 54.9214 6.20645H52.9497C52.9497 5.08087 52.5089 4.01825 51.706 3.21538C50.9032 2.41252 49.8445 1.97174 48.7228 1.97174C46.389 1.97174 44.4881 3.86871 44.4881 6.20252V24.4913C44.4881 26.8212 46.389 28.7181 48.7228 28.7181C51.0527 28.7181 52.9497 26.8212 52.9497 24.4913H54.9214C54.9214 27.9153 52.1389 30.6977 48.7189 30.6977Z" fill="black"/>
<path d="M55.9674 15.3479L53.9359 13.3164L51.9044 15.3479L53.9359 17.3794L55.9674 15.3479Z" fill="black"/>
<path d="M12.161 30.6975H3.32558C1.49159 30.6975 0 29.2059 0 27.372V0.090332H1.97173V27.372C1.97173 28.1158 2.57781 28.7219 3.32164 28.7219H12.1571V30.6975H12.161Z" fill="black"/>
<path d="M6.57223 4.09277V5.74573L1.38116 7.54824L0.865601 6.07632L6.57223 4.09277Z" fill="black"/>
<path d="M1.29865 7.71342L0.700439 5.99749L6.70224 3.91162V5.83613L1.29865 7.71342ZM1.03103 6.15491L1.46001 7.37889L6.44249 5.65115V4.27369L1.03103 6.15491Z" fill="black"/>
<path d="M6.57213 9.37451V11.0275L1.23939 12.8811L0.731689 11.4053L6.57213 9.37451Z" fill="black"/>
<path d="M1.15701 13.0463L0.562744 11.3265L6.70229 9.19336V11.1179L1.15701 13.0463ZM0.897273 11.4839L1.32231 12.7118L6.44647 10.929V9.5515L0.897273 11.4839Z" fill="black"/>
<path d="M66.622 0.0512695H64.6503V30.6506H66.622V0.0512695Z" fill="black"/>
<path d="M70.9351 10.0398H65.6378V8.06416H70.9391C71.6829 8.06416 72.289 7.45808 72.289 6.71425V0.0512695H74.2607V6.71425C74.2607 8.54824 72.7691 10.0398 70.9351 10.0398Z" fill="black"/>
<path d="M77.2204 30.6502L66.5234 8.61865L64.7484 9.48055L75.0243 30.6502H77.2204Z" fill="black"/>
</svg>
